<mxfile host="app.diagrams.net" modified="2021-06-24T09:24:48.410Z" agent="5.0 (Windows NT 6.1; WOW64) AppleWebKit/537.36 (KHTML, like Gecko) Chrome/91.0.4472.114 Safari/537.36" etag="_pxRbgSVUpcaN1BvA0-R" version="14.8.0" type="github">
  <diagram name="Page-1" id="e7e014a7-5840-1c2e-5031-d8a46d1fe8dd">
    <mxGraphModel dx="599" dy="358" grid="1" gridSize="10" guides="1" tooltips="1" connect="1" arrows="1" fold="1" page="1" pageScale="1" pageWidth="1169" pageHeight="826" background="none" math="0" shadow="0">
      <root>
        <mxCell id="0" />
        <mxCell id="1" parent="0" />
        <mxCell id="2" value="main thread" style="swimlane;whiteSpace=wrap;fillColor=#B3B3B3;" parent="1" vertex="1">
          <mxGeometry x="110" y="140" width="1280" height="570" as="geometry">
            <mxRectangle x="120" y="120" width="100" height="23" as="alternateBounds" />
          </mxGeometry>
        </mxCell>
        <mxCell id="Y8nsKAu3wBHhPWNgKPNa-80" style="edgeStyle=orthogonalEdgeStyle;rounded=0;orthogonalLoop=1;jettySize=auto;html=1;entryX=0;entryY=0.5;entryDx=0;entryDy=0;" edge="1" parent="2" source="7" target="Y8nsKAu3wBHhPWNgKPNa-78">
          <mxGeometry relative="1" as="geometry" />
        </mxCell>
        <mxCell id="Y8nsKAu3wBHhPWNgKPNa-81" value="createCommObject" style="edgeLabel;html=1;align=center;verticalAlign=middle;resizable=0;points=[];" vertex="1" connectable="0" parent="Y8nsKAu3wBHhPWNgKPNa-80">
          <mxGeometry x="-0.2746" relative="1" as="geometry">
            <mxPoint as="offset" />
          </mxGeometry>
        </mxCell>
        <mxCell id="7" value="Channel:CComObject&#xa;------------&#xa;+m_ptlInterface&#xa;+ProtocolDataAccess&#xa;+IPtlTxData&#xa;+m_pCommObj&#xa;+openComm()&#xa;" style="" parent="2" vertex="1">
          <mxGeometry x="641" y="30" width="186" height="160" as="geometry" />
        </mxCell>
        <mxCell id="Y8nsKAu3wBHhPWNgKPNa-42" style="edgeStyle=orthogonalEdgeStyle;rounded=0;orthogonalLoop=1;jettySize=auto;html=1;entryX=0;entryY=0.5;entryDx=0;entryDy=0;" edge="1" parent="2" source="Y8nsKAu3wBHhPWNgKPNa-41" target="7">
          <mxGeometry relative="1" as="geometry" />
        </mxCell>
        <mxCell id="Y8nsKAu3wBHhPWNgKPNa-43" value="&lt;font style=&quot;font-size: 10px&quot;&gt;setChannel&lt;/font&gt;" style="edgeLabel;html=1;align=center;verticalAlign=middle;resizable=0;points=[];" vertex="1" connectable="0" parent="Y8nsKAu3wBHhPWNgKPNa-42">
          <mxGeometry x="-0.3278" relative="1" as="geometry">
            <mxPoint x="20" y="-12" as="offset" />
          </mxGeometry>
        </mxCell>
        <mxCell id="Y8nsKAu3wBHhPWNgKPNa-46" style="edgeStyle=orthogonalEdgeStyle;rounded=0;orthogonalLoop=1;jettySize=auto;html=1;startArrow=none;" edge="1" parent="2" source="Y8nsKAu3wBHhPWNgKPNa-41" target="Y8nsKAu3wBHhPWNgKPNa-45">
          <mxGeometry relative="1" as="geometry">
            <mxPoint x="341" y="173" as="sourcePoint" />
            <Array as="points">
              <mxPoint x="351" y="205" />
              <mxPoint x="351" y="205" />
            </Array>
          </mxGeometry>
        </mxCell>
        <mxCell id="Y8nsKAu3wBHhPWNgKPNa-67" value="setOwner" style="edgeLabel;html=1;align=center;verticalAlign=middle;resizable=0;points=[];" vertex="1" connectable="0" parent="Y8nsKAu3wBHhPWNgKPNa-46">
          <mxGeometry x="0.2222" y="-2" relative="1" as="geometry">
            <mxPoint as="offset" />
          </mxGeometry>
        </mxCell>
        <mxCell id="Y8nsKAu3wBHhPWNgKPNa-41" value="LogicalLink&#xa;------------&#xa;+m_channels（主、备、平衡)&#xa;+startWork()" style="" vertex="1" parent="2">
          <mxGeometry x="311" y="55" width="186" height="110" as="geometry" />
        </mxCell>
        <mxCell id="Y8nsKAu3wBHhPWNgKPNa-48" style="edgeStyle=orthogonalEdgeStyle;rounded=0;orthogonalLoop=1;jettySize=auto;html=1;" edge="1" parent="2" source="Y8nsKAu3wBHhPWNgKPNa-45">
          <mxGeometry relative="1" as="geometry">
            <mxPoint x="471" y="165" as="targetPoint" />
            <Array as="points">
              <mxPoint x="471" y="165" />
            </Array>
          </mxGeometry>
        </mxCell>
        <mxCell id="Y8nsKAu3wBHhPWNgKPNa-49" value="setLogicalLink" style="edgeLabel;html=1;align=center;verticalAlign=middle;resizable=0;points=[];" vertex="1" connectable="0" parent="Y8nsKAu3wBHhPWNgKPNa-48">
          <mxGeometry x="-0.2963" relative="1" as="geometry">
            <mxPoint as="offset" />
          </mxGeometry>
        </mxCell>
        <mxCell id="Y8nsKAu3wBHhPWNgKPNa-51" style="edgeStyle=orthogonalEdgeStyle;rounded=0;orthogonalLoop=1;jettySize=auto;html=1;entryX=0;entryY=0.5;entryDx=0;entryDy=0;" edge="1" parent="2" source="Y8nsKAu3wBHhPWNgKPNa-45" target="Y8nsKAu3wBHhPWNgKPNa-50">
          <mxGeometry relative="1" as="geometry" />
        </mxCell>
        <mxCell id="Y8nsKAu3wBHhPWNgKPNa-53" value="setDevices" style="edgeLabel;html=1;align=center;verticalAlign=middle;resizable=0;points=[];" vertex="1" connectable="0" parent="Y8nsKAu3wBHhPWNgKPNa-51">
          <mxGeometry x="-0.24" y="-1" relative="1" as="geometry">
            <mxPoint as="offset" />
          </mxGeometry>
        </mxCell>
        <mxCell id="Y8nsKAu3wBHhPWNgKPNa-45" value="collObj&#xa;CollObjectBase&#xa;------------&#xa;+startWork()" style="" vertex="1" parent="2">
          <mxGeometry x="311" y="255" width="186" height="110" as="geometry" />
        </mxCell>
        <mxCell id="Y8nsKAu3wBHhPWNgKPNa-50" value="CDBDevice&#xa;------------" style="" vertex="1" parent="2">
          <mxGeometry x="641" y="255" width="186" height="110" as="geometry" />
        </mxCell>
        <mxCell id="Y8nsKAu3wBHhPWNgKPNa-64" value="CCollObjectMan&#xa;------------&#xa;+startWork()" style="" vertex="1" parent="2">
          <mxGeometry x="481" y="405" width="186" height="110" as="geometry" />
        </mxCell>
        <mxCell id="Y8nsKAu3wBHhPWNgKPNa-65" style="edgeStyle=orthogonalEdgeStyle;rounded=0;orthogonalLoop=1;jettySize=auto;html=1;entryX=0.5;entryY=1;entryDx=0;entryDy=0;" edge="1" parent="2" source="Y8nsKAu3wBHhPWNgKPNa-64" target="Y8nsKAu3wBHhPWNgKPNa-45">
          <mxGeometry relative="1" as="geometry">
            <mxPoint x="101" y="373" as="targetPoint" />
            <Array as="points">
              <mxPoint x="401" y="453" />
            </Array>
          </mxGeometry>
        </mxCell>
        <mxCell id="Y8nsKAu3wBHhPWNgKPNa-66" value="addObject" style="edgeLabel;html=1;align=center;verticalAlign=middle;resizable=0;points=[];" vertex="1" connectable="0" parent="Y8nsKAu3wBHhPWNgKPNa-65">
          <mxGeometry x="-0.3514" y="1" relative="1" as="geometry">
            <mxPoint as="offset" />
          </mxGeometry>
        </mxCell>
        <mxCell id="Y8nsKAu3wBHhPWNgKPNa-73" style="edgeStyle=orthogonalEdgeStyle;rounded=0;orthogonalLoop=1;jettySize=auto;html=1;exitX=0.5;exitY=0;exitDx=0;exitDy=0;entryX=0;entryY=0.5;entryDx=0;entryDy=0;" edge="1" parent="2" source="Y8nsKAu3wBHhPWNgKPNa-72" target="Y8nsKAu3wBHhPWNgKPNa-45">
          <mxGeometry relative="1" as="geometry" />
        </mxCell>
        <mxCell id="Y8nsKAu3wBHhPWNgKPNa-72" value="CModelMgr::loadModelFile()" style="text;whiteSpace=wrap;html=1;labelBorderColor=none;strokeColor=#FF3333;fillColor=#FFFF99;" vertex="1" parent="2">
          <mxGeometry x="170" y="475" width="226" height="40" as="geometry" />
        </mxCell>
        <mxCell id="Y8nsKAu3wBHhPWNgKPNa-76" style="edgeStyle=orthogonalEdgeStyle;rounded=0;orthogonalLoop=1;jettySize=auto;html=1;entryX=1;entryY=0.5;entryDx=0;entryDy=0;" edge="1" parent="2" source="Y8nsKAu3wBHhPWNgKPNa-74" target="Y8nsKAu3wBHhPWNgKPNa-64">
          <mxGeometry relative="1" as="geometry">
            <Array as="points">
              <mxPoint x="923" y="460" />
            </Array>
          </mxGeometry>
        </mxCell>
        <mxCell id="Y8nsKAu3wBHhPWNgKPNa-77" value="startWork()" style="edgeLabel;html=1;align=center;verticalAlign=middle;resizable=0;points=[];" vertex="1" connectable="0" parent="Y8nsKAu3wBHhPWNgKPNa-76">
          <mxGeometry x="-0.2208" y="3" relative="1" as="geometry">
            <mxPoint as="offset" />
          </mxGeometry>
        </mxCell>
        <mxCell id="Y8nsKAu3wBHhPWNgKPNa-74" value="CCollObjectMan::startWork()" style="text;whiteSpace=wrap;html=1;labelBorderColor=none;strokeColor=#FF3333;fillColor=#FFFF99;" vertex="1" parent="2">
          <mxGeometry x="810" y="512" width="226" height="40" as="geometry" />
        </mxCell>
        <mxCell id="Y8nsKAu3wBHhPWNgKPNa-78" value="CommObjectBase&#xa;--------------&#xa;+openCom()" style="" vertex="1" parent="2">
          <mxGeometry x="1059" y="55" width="161" height="110" as="geometry" />
        </mxCell>
        <mxCell id="Y8nsKAu3wBHhPWNgKPNa-85" style="edgeStyle=orthogonalEdgeStyle;rounded=0;orthogonalLoop=1;jettySize=auto;html=1;entryX=1;entryY=0.75;entryDx=0;entryDy=0;" edge="1" parent="2" source="Y8nsKAu3wBHhPWNgKPNa-84" target="7">
          <mxGeometry relative="1" as="geometry" />
        </mxCell>
        <mxCell id="Y8nsKAu3wBHhPWNgKPNa-86" value="createChannels" style="edgeLabel;html=1;align=center;verticalAlign=middle;resizable=0;points=[];" vertex="1" connectable="0" parent="Y8nsKAu3wBHhPWNgKPNa-85">
          <mxGeometry x="0.1423" y="3" relative="1" as="geometry">
            <mxPoint x="1" y="1" as="offset" />
          </mxGeometry>
        </mxCell>
        <mxCell id="Y8nsKAu3wBHhPWNgKPNa-84" value="ChannelManager&#xa;--------------&#xa;" style="" vertex="1" parent="2">
          <mxGeometry x="920" y="255" width="161" height="110" as="geometry" />
        </mxCell>
      </root>
    </mxGraphModel>
  </diagram>
</mxfile>
